<svg xmlns="http://www.w3.org/2000/svg" xmlns:xlink="http://www.w3.org/1999/xlink" width="500" zoomAndPan="magnify" viewBox="0 0 375 374.999991" height="500" preserveAspectRatio="xMidYMid meet" version="1.0"><defs><clipPath id="cc3af6635f"><path d="M 19.453125 0 L 355.453125 0 L 355.453125 375 L 19.453125 375 Z M 19.453125 0 " clip-rule="nonzero"/></clipPath></defs><g clip-path="url(#cc3af6635f)"><path fill="#f7931e" d="M 141.601562 44.363281 L 141.601562 170.902344 L 111.769531 170.902344 L 111.769531 79.394531 L 73.859375 123.652344 L 73.859375 251.300781 L 111.769531 295.382812 L 111.769531 204.347656 L 141.601562 204.347656 L 141.601562 330.578125 L 179.332031 374.683594 L 179.332031 0.257812 Z M 175.648438 364.949219 L 145.296875 329.460938 L 145.296875 201.058594 L 108.09375 201.058594 L 108.09375 285.6875 L 77.558594 250.1875 L 77.558594 124.753906 L 108.082031 89.113281 L 108.082031 174.1875 L 145.285156 174.1875 L 145.285156 45.480469 L 175.636719 9.992188 L 175.636719 364.949219 Z M 51.199219 150.4375 L 51.199219 224.515625 L 19.453125 187.476562 Z M 194.144531 374.695312 L 194.144531 0.410156 L 355.5 189.121094 L 269.371094 189.121094 L 269.371094 155.675781 L 279.710938 155.675781 L 231.875 99.691406 L 231.875 275.824219 L 282.878906 216.003906 L 329.773438 215.839844 Z M 197.828125 10.15625 L 197.828125 364.949219 L 322.300781 219.148438 L 284.695312 219.277344 L 228.164062 285.582031 L 228.164062 89.945312 L 287.148438 158.960938 L 273.066406 158.960938 L 273.066406 185.832031 L 348.058594 185.832031 Z M 197.828125 10.15625 " fill-opacity="1" fill-rule="nonzero"/></g></svg>